<?xml version="1.0" encoding="utf-8"?>
<!-- Generator: Adobe Illustrator 16.0.4, SVG Export Plug-In . SVG Version: 6.00 Build 0)  -->
<!DOCTYPE svg PUBLIC "-//W3C//DTD SVG 1.1//EN" "http://www.w3.org/Graphics/SVG/1.1/DTD/svg11.dtd">
<svg version="1.1" id="Layer_1" xmlns="http://www.w3.org/2000/svg" xmlns:xlink="http://www.w3.org/1999/xlink" x="0px" y="0px"
	 width="200px" height="200px" viewBox="0 0 200 200" enable-background="new 0 0 200 200"
	 xml:space="preserve">
<linearGradient id="grayscale" x1="0%" y1="0%" x2="0%" y2="100%">
  <stop offset="0%" style="stop-color:rgb(153,153,153);stop-opacity:1"/>
  <stop offset="15%" style="stop-color:rgb(102,102,102);stop-opacity:1"/>
  <stop offset="85%" style="stop-color:rgb(102,102,102);stop-opacity:1"/>
  <stop offset="100%" style="stop-color:rgb(51,51,51);stop-opacity:1"/>
</linearGradient>
<path d="M3,23a18,18,0,0,1,20-20L177,3a18,18,0,0,1,20,20l0,154a18,18,0,0,1-20,20l-154,0a18,18,0,0,1-20-20Z" stroke="rgb(102,102,102)" stroke-width="2" fill="url(#grayscale)"/>
<path d="M1,21a20,20,0,0,1,20-20L179,1a20,20,0,0,1,20,20l0,158a20,20,0,0,1-20,20l-158,0a20,20,0,0,1-20-20Z" stroke="black" stroke-width="2" fill="transparent"/>
</svg>
