<?xml version="1.0" encoding="utf-8"?>
<!-- Generator: Adobe Illustrator 16.0.4, SVG Export Plug-In . SVG Version: 6.00 Build 0)  -->
<!DOCTYPE svg PUBLIC "-//W3C//DTD SVG 1.1//EN" "http://www.w3.org/Graphics/SVG/1.1/DTD/svg11.dtd">
<svg version="1.1" id="Layer_1" xmlns="http://www.w3.org/2000/svg" xmlns:xlink="http://www.w3.org/1999/xlink" x="0px" y="0px"
	 width="200px" height="200px" viewBox="0 0 200 200" enable-background="new 0 0 200 200"
	 xml:space="preserve">
<linearGradient id="grayscale" x1="0%" y1="0%" x2="0%" y2="100%">
  <stop offset="0%" style="stop-color:rgb(153,153,153);stop-opacity:1"/>
  <stop offset="10%" style="stop-color:rgb(74,74,74);stop-opacity:1"/>
  <stop offset="90%" style="stop-color:rgb(74,74,74);stop-opacity:1"/>
  <stop offset="100%" style="stop-color:rgb(32,32,32);stop-opacity:1"/>
</linearGradient>
<path d="M3,21a18,18,0,0,1,18-18L179,3a18,18,0,0,1,18,18l0,158a18,18,0,0,1-18,18l-158,0a18,18,0,0,1-18-18Z" stroke="rgb(74,74,74)" stroke-width="2" fill="url(#grayscale)"/>
<path d="M1,21a20,20,0,0,1,20-20L179,1a20,20,0,0,1,20,20l0,158a20,20,0,0,1-20,20l-158,0a20,20,0,0,1-20-20Z" stroke="black" stroke-width="2" fill="transparent"/>
<path d="M4,21a17,17,0,0,1,17-17L179,4a17,17,0,0,1,17,17l0,59a192,150,0,0,1-192,0Z" fill="white" fill-opacity=".1"/>
<path d="M4,179a17,17,0,0,0,17,17l158,0a17,17,0,0,0,17-17a192,150,0,0,0-192,0Z" fill="black" fill-opacity=".1"/>
<path d="M68,136l60,60h51a17,17,0,0,0,17-17v-61l-50-50h-70Z" fill="black" fill-opacity=".5"/>
<path d="M100,100m4.5,30c11,0 19-4 26-13l14,14c-11,12 -24,19 -39,19s-27-5 -37-14c-10-9 -14-21 -14-36c0-14 5-26 15-36c10-10 22-14 36-14c16,0 29,6 40,18l-13,15c-7-8 -15-13 -25-13c-8,0 -15,3 -21,8c-6,5 -9,12 -9,21s3,16 8,22c5,5 12,9 20,9z" fill="white"/>
</svg>
