<?xml version="1.0" encoding="utf-8"?>
<!-- Generator: Adobe Illustrator 16.0.4, SVG Export Plug-In . SVG Version: 6.00 Build 0)  -->
<!DOCTYPE svg PUBLIC "-//W3C//DTD SVG 1.1//EN" "http://www.w3.org/Graphics/SVG/1.1/DTD/svg11.dtd">
<svg version="1.1" id="Layer_1" xmlns="http://www.w3.org/2000/svg" xmlns:xlink="http://www.w3.org/1999/xlink" x="0px" y="0px"
	 width="200px" height="200px" viewBox="0 0 200 200" enable-background="new 0 0 200 200"
	 xml:space="preserve">
<linearGradient id="grayscale" x1="0%" y1="0%" x2="0%" y2="100%">
  <stop offset="0%" style="stop-color:rgb(153,153,153);stop-opacity:1"/>
  <stop offset="10%" style="stop-color:rgb(74,74,74);stop-opacity:1"/>
  <stop offset="90%" style="stop-color:rgb(74,74,74);stop-opacity:1"/>
  <stop offset="100%" style="stop-color:rgb(32,32,32);stop-opacity:1"/>
</linearGradient>
<path d="M3,21a18,18,0,0,1,18-18L179,3a18,18,0,0,1,18,18l0,158a18,18,0,0,1-18,18l-158,0a18,18,0,0,1-18-18Z" stroke="rgb(74,74,74)" stroke-width="2" fill="url(#grayscale)"/>
<path d="M1,21a20,20,0,0,1,20-20L179,1a20,20,0,0,1,20,20l0,158a20,20,0,0,1-20,20l-158,0a20,20,0,0,1-20-20Z" stroke="black" stroke-width="2" fill="transparent"/>
<path d="M4,21a17,17,0,0,1,17-17L179,4a17,17,0,0,1,17,17l0,59a192,150,0,0,1-192,0Z" fill="white" fill-opacity=".1"/>
<path d="M4,179a17,17,0,0,0,17,17l158,0a17,17,0,0,0,17-17a192,150,0,0,0-192,0Z" fill="black" fill-opacity=".1"/>
<path d="M100,100m-34,50l46,46h67a17,17,0,0,0,17-17v-39l-80-80h-50Z" fill="black" opacity=".5"/>
<path d="M100,100m-34-50h22c11,0 20,3 26,8c9,7 9,22 0,34c4,0 9,1 11,3c7,6 9,13 9,22s-3,18-9,24s-15,9-27,9h-32Zm11,88h21s11,0 17-6 6-15 6-15c0-7-1-9-6-13c-1-1-7-5-17-5.5h-21m0-11h10c7-0 12-2 15-4c6-5 6-13-0-18c-3-2 -8-4 -15-4h-10Z" fill="white"/>
</svg>
