<?xml version="1.0" encoding="utf-8"?>
<!-- Generator: Adobe Illustrator 16.0.4, SVG Export Plug-In . SVG Version: 6.00 Build 0)  -->
<!DOCTYPE svg PUBLIC "-//W3C//DTD SVG 1.1//EN" "http://www.w3.org/Graphics/SVG/1.1/DTD/svg11.dtd">
<svg version="1.1" id="Layer_1" xmlns="http://www.w3.org/2000/svg" xmlns:xlink="http://www.w3.org/1999/xlink" x="0px" y="0px"
	 width="260px" height="640px" viewBox="0 0 260 640" enable-background="new 0 0 260 640"
	 xml:space="preserve">
<circle cx="130" cy="75" r="65" stroke="black" stroke-width="5" fill="transparent"/>
<path d="M10,205c0,-80,240,-80,240,0l0,180c0,20,-45,20,-50,0l0,-150q-5,-5,-10,0l0,380c0,20,-55,20,-55,0l0,-200q-5,-5,-10,0l0,200c0,20,-55,20,-55,0l0,-380q-5,-5,-10,0l0,150c0,20,-50,20,-50,0Z" stroke="black" stroke-width="5" fill="transparent"/>
</svg>
